<?xml version="1.0" encoding="UTF-8" standalone="no"?>
<!-- Created with Inkscape (http://www.inkscape.org/) -->

<svg
   xmlns:dc="http://purl.org/dc/elements/1.1/"
   xmlns:cc="http://creativecommons.org/ns#"
   xmlns:rdf="http://www.w3.org/1999/02/22-rdf-syntax-ns#"
   xmlns:svg="http://www.w3.org/2000/svg"
   xmlns="http://www.w3.org/2000/svg"
   xmlns:sodipodi="http://sodipodi.sourceforge.net/DTD/sodipodi-0.dtd"
   xmlns:inkscape="http://www.inkscape.org/namespaces/inkscape"
   id="svg2"
   version="1.1"
   inkscape:version="0.48.3.1 r9886"
   width="240"
   height="240"
   xml:space="preserve"
   sodipodi:docname="tecla_iconsvg.svg"
   inkscape:export-filename="/home/jsilva/devel/tecla/ime/java/res/drawable-ldpi/tecla_icon.png"
   inkscape:export-xdpi="30"
   inkscape:export-ydpi="30"><metadata
     id="metadata8"><rdf:RDF><cc:Work
         rdf:about=""><dc:format>image/svg+xml</dc:format><dc:type
           rdf:resource="http://purl.org/dc/dcmitype/StillImage" /><dc:title></dc:title></cc:Work></rdf:RDF></metadata><defs
     id="defs6" /><sodipodi:namedview
     pagecolor="#ffffff"
     bordercolor="#666666"
     borderopacity="1"
     objecttolerance="10"
     gridtolerance="10"
     guidetolerance="10"
     inkscape:pageopacity="0"
     inkscape:pageshadow="2"
     inkscape:window-width="2560"
     inkscape:window-height="1389"
     id="namedview4"
     showgrid="false"
     inkscape:zoom="3.1426968"
     inkscape:cx="152.65125"
     inkscape:cy="80.331371"
     inkscape:window-x="-2"
     inkscape:window-y="27"
     inkscape:window-maximized="1"
     inkscape:current-layer="g10" /><g
     id="g10"
     inkscape:groupmode="layer"
     inkscape:label="ink_ext_XXXXXX"
     transform="matrix(1.25,0,0,-1.25,0,240)"><rect
       style="fill:#ffffff;fill-opacity:1;stroke:#ffffff;stroke-width:63.86914062;stroke-linecap:round;stroke-linejoin:round;stroke-miterlimit:4;stroke-opacity:1;stroke-dasharray:none"
       id="rect3063"
       width="128.13086"
       height="128.13086"
       x="31.93457"
       y="-160.06543"
       transform="scale(1,-1)" /><g
       id="g3039"
       transform="matrix(1.0893559,0,0,1.0893559,-1.9500799,26.701767)"><path
         d="m 32.686828,86.474395 c 0,0 -3.6399,-4.9051 0.314,-7.7598 3.2954,-2.3688 51.9067,-27.5332 51.9067,-27.5332 0,0 -5.3281,-23.9746 4.6719,-35.21408 2.5312,-2.84609 7.5937,-1.65586 7.5937,-1.65586 0,0 -7.3523,-4.7511698 -15.1887,-1.19023 -4.9254,2.24023 -63.3816,33.23707 -63.3816,33.23707 0,0 -3.090625,1.3387 -1.817578,6.4012 1.258198,5.0684 10.521078,25.0098 10.839078,27.2207 0.3164,2.2242 3.3203,5.8668 5.0625,6.4942"
         style="fill:#50b0e7;fill-opacity:1;fill-rule:nonzero;stroke:none"
         id="path14"
         inkscape:connector-curvature="0" /><path
         d="m 94.087628,115.4304 c 0,0 48.023192,-19.815405 52.224192,-25.634205 4.118,-5.7008 -0.047,-9.9 -5.7,-13.298 -7.909,-4.7422 -45.899192,-23.0981 -45.899192,-23.0981 0,0 27.853192,19.627 27.543202,31.6457 -0.357,13.4789 -22.472102,26.590305 -28.168202,30.384605"
         style="fill:#393536;fill-opacity:1;fill-rule:nonzero;stroke:none"
         id="path16"
         inkscape:connector-curvature="0" /><path
         d="m 153.71983,74.644295 c 0,0 5.52,-9.6793 9.052,-18.0852 2.29,-5.4558 -2.479,-8.1062 -9.10201,-12.575 -8.06899,-5.4668 -35.84599,-19.4715 -35.84599,-19.4715 0,0 26.90499,18.2793 32.286,28.7274 4.446,8.6316 3.61,21.4043 3.61,21.4043"
         style="fill:#50b0e7;fill-opacity:1;fill-rule:nonzero;stroke:none"
         id="path18"
         inkscape:connector-curvature="0" /></g></g></svg>